<?xml version="1.0" encoding="utf-8"?>
<svg version="1.1" xmlns:xlink="http://www.w3.org/1999/xlink" width="65px" height="65px" xmlns="http://www.w3.org/2000/svg">
  <g transform="matrix(1 0 0 1 -1440 -13 )">
    <path d="M 19.8772321428571 2.57533482142857  C 23.8913690476191 0.85844494047619  28.0989583333333 0  32.5 0  C 36.9010416666667 0  41.108630952381 0.85844494047619  45.1227678571429 2.57533482142857  C 49.1369047619048 4.29222470238095  52.5948660714286 6.6015625  55.4966517857143 9.50334821428571  C 58.3984375 12.4051339285714  60.7077752976191 15.8630952380952  62.4246651785714 19.8772321428571  C 64.1415550595238 23.891369047619  65 28.0989583333333  65 32.5  C 65 36.8768601190476  64.1476004464286 41.0723586309524  62.4428013392857 45.0864955357143  C 60.7380022321429 49.1006324404762  58.4347098214286 52.55859375  55.5329241071429 55.4603794642857  C 52.6311383928571 58.3621651785714  49.1731770833333 60.6775483630952  45.1590401785714 62.4065290178571  C 41.1449032738095 64.1355096726191  36.9252232142857 65  32.5 65  C 28.0747767857143 65  23.8550967261905 64.1415550595238  19.8409598214286 62.4246651785714  C 15.8268229166667 60.7077752976191  12.3749069940476 58.3923921130952  9.48521205357143 55.478515625  C 6.59551711309524 52.5646391369048  4.29222470238095 49.1066778273809  2.57533482142857 45.1046316964286  C 0.85844494047619 41.1025855654762  0 36.9010416666667  0 32.5  C 0 28.0989583333333  0.85844494047619 23.891369047619  2.57533482142857 19.8772321428571  C 4.29222470238095 15.8630952380952  6.6015625 12.4051339285714  9.50334821428572 9.50334821428571  C 12.4051339285714 6.6015625  15.8630952380952 4.29222470238095  19.8772321428571 2.57533482142857  Z M 43.8532366071429 37.1428571428571  C 49.6568080357143 37.1428571428571  53.3565848214286 41.0965401785714  54.9525669642857 49.00390625  C 58.5556175595238 44.0466889880952  60.3571428571429 38.5453869047619  60.3571428571429 32.5  C 60.3571428571429 28.7276785714286  59.6196056547619 25.1246279761905  58.14453125 21.6908482142857  C 56.6694568452381 18.2570684523809  54.6865699404762 15.2948288690476  52.1958705357143 12.8041294642857  C 49.7051711309524 10.3134300595238  46.7429315476191 8.3305431547619  43.3091517857143 6.85546875  C 39.8753720238095 5.38039434523809  36.2723214285714 4.64285714285714  32.5 4.64285714285714  C 28.7276785714286 4.64285714285714  25.1246279761905 5.38039434523809  21.6908482142857 6.85546875  C 18.257068452381 8.3305431547619  15.2948288690476 10.3134300595238  12.8041294642857 12.8041294642857  C 10.3134300595238 15.2948288690476  8.33054315476191 18.2570684523809  6.85546875 21.6908482142857  C 5.3803943452381 25.1246279761905  4.64285714285714 28.7276785714286  4.64285714285714 32.5  C 4.64285714285714 38.5453869047619  6.44438244047619 44.0466889880952  10.0474330357143 49.00390625  C 11.6434151785714 41.0965401785714  15.3431919642857 37.1428571428571  21.1467633928571 37.1428571428571  C 24.3145461309524 40.2380952380952  28.0989583333333 41.7857142857143  32.5 41.7857142857143  C 36.9010416666667 41.7857142857143  40.6854538690476 40.2380952380952  43.8532366071429 37.1428571428571  Z M 42.3479352678571 35.3836495535714  C 45.068359375 32.6632254464286  46.4285714285714 29.3805803571429  46.4285714285714 25.5357142857143  C 46.4285714285714 21.6908482142857  45.068359375 18.408203125  42.3479352678571 15.6877790178571  C 39.6275111607143 12.9673549107143  36.3448660714286 11.6071428571429  32.5 11.6071428571429  C 28.6551339285714 11.6071428571429  25.3724888392857 12.9673549107143  22.6520647321429 15.6877790178571  C 19.931640625 18.408203125  18.5714285714286 21.6908482142857  18.5714285714286 25.5357142857143  C 18.5714285714286 29.3805803571429  19.931640625 32.6632254464286  22.6520647321429 35.3836495535714  C 25.3724888392857 38.1040736607143  28.6551339285714 39.4642857142857  32.5 39.4642857142857  C 36.3448660714286 39.4642857142857  39.6275111607143 38.1040736607143  42.3479352678571 35.3836495535714  Z " fill-rule="nonzero" fill="#7b7a7a" stroke="none" transform="matrix(1 0 0 1 1440 13 )" />
  </g>
</svg>