<?xml version="1.0" encoding="utf-8"?>
<svg version="1.1" xmlns:xlink="http://www.w3.org/1999/xlink" width="13px" height="22px" xmlns="http://www.w3.org/2000/svg">
  <g transform="matrix(1 0 0 1 -274 -7 )">
    <path d="M 12.2890625 6.7  C 12.7630208333333 7.16666666666667  13 7.73333333333333  13 8.4  L 13 13.6  C 13 13.9333333333333  12.8815104166667 14.2166666666667  12.64453125 14.45  C 12.4075520833333 14.6833333333333  12.1197916666667 14.8  11.78125 14.8  C 11.4427083333333 14.8  11.1549479166667 14.6833333333333  10.91796875 14.45  C 10.6809895833333 14.2166666666667  10.5625 13.9333333333333  10.5625 13.6  L 10.5625 9.2  L 9.75 9.2  L 9.75 20.6  C 9.75 20.9833333333333  9.6103515625 21.3125  9.3310546875 21.5875  C 9.0517578125 21.8625  8.71744791666667 22  8.328125 22  C 7.93880208333333 22  7.6044921875 21.8625  7.3251953125 21.5875  C 7.0458984375 21.3125  6.90625 20.9833333333333  6.90625 20.6  L 6.90625 14.8  L 6.09375 14.8  L 6.09375 20.6  C 6.09375 20.9833333333333  5.9541015625 21.3125  5.6748046875 21.5875  C 5.3955078125 21.8625  5.06119791666667 22  4.671875 22  C 4.28255208333333 22  3.9482421875 21.8625  3.6689453125 21.5875  C 3.3896484375 21.3125  3.25 20.9833333333333  3.25 20.6  L 3.25 9.2  L 2.4375 9.2  L 2.4375 13.6  C 2.4375 13.9333333333333  2.31901041666667 14.2166666666667  2.08203125 14.45  C 1.84505208333333 14.6833333333333  1.55729166666667 14.8  1.21875 14.8  C 0.880208333333333 14.8  0.592447916666667 14.6833333333333  0.35546875 14.45  C 0.118489583333333 14.2166666666667  0 13.9333333333333  0 13.6  L 0 8.4  C 0 7.73333333333333  0.236979166666667 7.16666666666667  0.7109375 6.7  C 1.18489583333333 6.23333333333333  1.76041666666667 6  2.4375 6  L 10.5625 6  C 11.2395833333333 6  11.8151041666667 6.23333333333333  12.2890625 6.7  Z M 8.51220703125 0.81875  C 9.06656901041667 1.36458333333333  9.34375 2.025  9.34375 2.8  C 9.34375 3.575  9.06656901041667 4.23541666666667  8.51220703125 4.78125  C 7.95784505208333 5.32708333333333  7.287109375 5.6  6.5 5.6  C 5.712890625 5.6  5.04215494791667 5.32708333333333  4.48779296875 4.78125  C 3.93343098958333 4.23541666666667  3.65625 3.575  3.65625 2.8  C 3.65625 2.025  3.93343098958333 1.36458333333333  4.48779296875 0.81875  C 5.04215494791667 0.272916666666665  5.712890625 0  6.5 0  C 7.287109375 0  7.95784505208333 0.272916666666665  8.51220703125 0.81875  Z " fill-rule="nonzero" fill="#5d5656" stroke="none" transform="matrix(1 0 0 1 274 7 )" />
  </g>
</svg>